# xmcd
#
# Track frame offsets: 
#        150
#        15832
#        31867
#        45430
#        61265
#        80452
#        94613
#        108108
#        125854
#        141146
#        147710
#        164634
#        182876
#        201449
#
# Disc length: 2908 seconds
#
# Revision: 4
# Processed by: cddbd v1.5.2PL0 Copyright (c) Steve Scherf et al.
# Submitted via: ExactAudioCopy v1.3
#
DISCID=c00b5a0e
DTITLE=A Day to Remember - Homesick (Special Edition)
DYEAR=2009
DGENRE=Easycore
TTITLE0=The Downfall of Us All
TTITLE1=My Life for Hire
TTITLE2=I'm Made of Wax Larry, What Are You Made Of? (feat. Mike Hrani
TTITLE2=ca)
TTITLE3=NJ Legion Iced Tea
TTITLE4=Mr. Highway's Thinking About the End
TTITLE5=Have Faith in Me
TTITLE6=Welcome to the Family (feat. Vincent Bennett)
TTITLE7=Homesick
TTITLE8=Holdin' It Down for the Underground
TTITLE9=You Already Know What You Are
TTITLE10=Another Song About the Weekend
TTITLE11=If It Means a Lot to You (feat. Sierra Kusterbeck)
TTITLE12=Homesick (Acoustic) (Bonus Track)
TTITLE13=Another Song About the Weekend (Acoustic) (Bonus Track)
EXTD=
EXTT0=
EXTT1=
EXTT2=
EXTT3=
EXTT4=
EXTT5=
EXTT6=
EXTT7=
EXTT8=
EXTT9=
EXTT10=
EXTT11=
EXTT12=
EXTT13=
PLAYORDER=
